<mxfile host="Electron" modified="2023-04-13T15:03:10.989Z" agent="Mozilla/5.0 (Windows NT 10.0; Win64; x64) AppleWebKit/537.36 (KHTML, like Gecko) draw.io/21.1.2 Chrome/106.0.5249.199 Electron/21.4.3 Safari/537.36" etag="wznbWWZmWkQhT3i1XcJH" version="21.1.2" type="device">
  <diagram id="hkEqpYg1LYHicySOGSAi" name="Página-1">
    <mxGraphModel dx="794" dy="1997" grid="1" gridSize="10" guides="1" tooltips="1" connect="1" arrows="1" fold="1" page="1" pageScale="1" pageWidth="827" pageHeight="1169" math="0" shadow="0">
      <root>
        <mxCell id="0" />
        <mxCell id="1" parent="0" />
        <mxCell id="TWmwgMmYxf-jAX9MpXv2-12" value="Producto" style="rounded=0;whiteSpace=wrap;html=1;fillColor=#ffe6cc;strokeColor=#d79b00;" parent="1" vertex="1">
          <mxGeometry x="100" y="270" width="120" height="60" as="geometry" />
        </mxCell>
        <mxCell id="TWmwgMmYxf-jAX9MpXv2-13" value="&lt;u&gt;ID&lt;/u&gt;" style="ellipse;whiteSpace=wrap;html=1;" parent="1" vertex="1">
          <mxGeometry x="10" y="260" width="70" height="40" as="geometry" />
        </mxCell>
        <mxCell id="TWmwgMmYxf-jAX9MpXv2-14" value="num Ref" style="ellipse;whiteSpace=wrap;html=1;" parent="1" vertex="1">
          <mxGeometry x="30" y="200" width="70" height="40" as="geometry" />
        </mxCell>
        <mxCell id="TWmwgMmYxf-jAX9MpXv2-15" value="cantidad" style="ellipse;whiteSpace=wrap;html=1;" parent="1" vertex="1">
          <mxGeometry x="10" y="370" width="70" height="40" as="geometry" />
        </mxCell>
        <mxCell id="TWmwgMmYxf-jAX9MpXv2-16" value="Estado" style="ellipse;whiteSpace=wrap;html=1;" parent="1" vertex="1">
          <mxGeometry y="320" width="70" height="40" as="geometry" />
        </mxCell>
        <mxCell id="TWmwgMmYxf-jAX9MpXv2-17" value="" style="endArrow=none;html=1;rounded=0;" parent="1" source="TWmwgMmYxf-jAX9MpXv2-12" target="TWmwgMmYxf-jAX9MpXv2-13" edge="1">
          <mxGeometry width="50" height="50" relative="1" as="geometry">
            <mxPoint x="550" y="470" as="sourcePoint" />
            <mxPoint x="600" y="420" as="targetPoint" />
          </mxGeometry>
        </mxCell>
        <mxCell id="TWmwgMmYxf-jAX9MpXv2-18" value="" style="endArrow=none;html=1;rounded=0;" parent="1" source="TWmwgMmYxf-jAX9MpXv2-12" target="TWmwgMmYxf-jAX9MpXv2-15" edge="1">
          <mxGeometry width="50" height="50" relative="1" as="geometry">
            <mxPoint x="550" y="470" as="sourcePoint" />
            <mxPoint x="240" y="250" as="targetPoint" />
          </mxGeometry>
        </mxCell>
        <mxCell id="TWmwgMmYxf-jAX9MpXv2-19" value="" style="endArrow=none;html=1;rounded=0;" parent="1" source="TWmwgMmYxf-jAX9MpXv2-12" target="TWmwgMmYxf-jAX9MpXv2-14" edge="1">
          <mxGeometry width="50" height="50" relative="1" as="geometry">
            <mxPoint x="240" y="450" as="sourcePoint" />
            <mxPoint x="290" y="400" as="targetPoint" />
          </mxGeometry>
        </mxCell>
        <mxCell id="TWmwgMmYxf-jAX9MpXv2-20" value="" style="endArrow=none;html=1;rounded=0;" parent="1" source="TWmwgMmYxf-jAX9MpXv2-12" target="TWmwgMmYxf-jAX9MpXv2-16" edge="1">
          <mxGeometry width="50" height="50" relative="1" as="geometry">
            <mxPoint x="550" y="470" as="sourcePoint" />
            <mxPoint x="600" y="420" as="targetPoint" />
          </mxGeometry>
        </mxCell>
        <mxCell id="TWmwgMmYxf-jAX9MpXv2-21" value="Tiene" style="rhombus;whiteSpace=wrap;html=1;fillColor=#dae8fc;strokeColor=#6c8ebf;" parent="1" vertex="1">
          <mxGeometry x="310" y="160" width="120" height="80" as="geometry" />
        </mxCell>
        <mxCell id="TWmwgMmYxf-jAX9MpXv2-114" style="edgeStyle=orthogonalEdgeStyle;rounded=0;orthogonalLoop=1;jettySize=auto;html=1;entryX=0.5;entryY=1;entryDx=0;entryDy=0;" parent="1" source="TWmwgMmYxf-jAX9MpXv2-25" target="TWmwgMmYxf-jAX9MpXv2-111" edge="1">
          <mxGeometry relative="1" as="geometry" />
        </mxCell>
        <mxCell id="TWmwgMmYxf-jAX9MpXv2-25" value="Cliente" style="rounded=0;whiteSpace=wrap;html=1;fillColor=#ffe6cc;strokeColor=#d79b00;" parent="1" vertex="1">
          <mxGeometry x="554.25" y="330" width="120" height="60" as="geometry" />
        </mxCell>
        <mxCell id="TWmwgMmYxf-jAX9MpXv2-26" value="" style="endArrow=classic;html=1;rounded=0;entryX=1;entryY=0.5;entryDx=0;entryDy=0;" parent="1" source="TWmwgMmYxf-jAX9MpXv2-21" target="TWmwgMmYxf-jAX9MpXv2-12" edge="1">
          <mxGeometry width="50" height="50" relative="1" as="geometry">
            <mxPoint x="530" y="450" as="sourcePoint" />
            <mxPoint x="580" y="400" as="targetPoint" />
          </mxGeometry>
        </mxCell>
        <mxCell id="TWmwgMmYxf-jAX9MpXv2-28" value="&lt;u&gt;ID&lt;/u&gt;" style="ellipse;whiteSpace=wrap;html=1;" parent="1" vertex="1">
          <mxGeometry x="450" y="340" width="70" height="40" as="geometry" />
        </mxCell>
        <mxCell id="TWmwgMmYxf-jAX9MpXv2-30" value="tlf" style="ellipse;whiteSpace=wrap;html=1;" parent="1" vertex="1">
          <mxGeometry x="450" y="280" width="70" height="40" as="geometry" />
        </mxCell>
        <mxCell id="TWmwgMmYxf-jAX9MpXv2-31" value="dirección" style="ellipse;whiteSpace=wrap;html=1;" parent="1" vertex="1">
          <mxGeometry x="698.5" y="250" width="70" height="40" as="geometry" />
        </mxCell>
        <mxCell id="TWmwgMmYxf-jAX9MpXv2-32" value="email" style="ellipse;whiteSpace=wrap;html=1;" parent="1" vertex="1">
          <mxGeometry x="708.5" y="300" width="70" height="40" as="geometry" />
        </mxCell>
        <mxCell id="TWmwgMmYxf-jAX9MpXv2-33" value="Nombre" style="ellipse;whiteSpace=wrap;html=1;" parent="1" vertex="1">
          <mxGeometry x="688.5" y="400" width="70" height="40" as="geometry" />
        </mxCell>
        <mxCell id="TWmwgMmYxf-jAX9MpXv2-34" value="Apellidos" style="ellipse;whiteSpace=wrap;html=1;" parent="1" vertex="1">
          <mxGeometry x="708.5" y="350" width="70" height="40" as="geometry" />
        </mxCell>
        <mxCell id="TWmwgMmYxf-jAX9MpXv2-35" value="" style="endArrow=none;html=1;rounded=0;" parent="1" source="TWmwgMmYxf-jAX9MpXv2-25" target="TWmwgMmYxf-jAX9MpXv2-28" edge="1">
          <mxGeometry width="50" height="50" relative="1" as="geometry">
            <mxPoint x="568.5" y="510" as="sourcePoint" />
            <mxPoint x="618.5" y="460" as="targetPoint" />
          </mxGeometry>
        </mxCell>
        <mxCell id="TWmwgMmYxf-jAX9MpXv2-36" value="" style="endArrow=none;html=1;rounded=0;" parent="1" source="TWmwgMmYxf-jAX9MpXv2-25" target="TWmwgMmYxf-jAX9MpXv2-30" edge="1">
          <mxGeometry width="50" height="50" relative="1" as="geometry">
            <mxPoint x="628.5" y="320" as="sourcePoint" />
            <mxPoint x="678.5" y="270" as="targetPoint" />
          </mxGeometry>
        </mxCell>
        <mxCell id="TWmwgMmYxf-jAX9MpXv2-37" value="" style="endArrow=none;html=1;rounded=0;" parent="1" source="TWmwgMmYxf-jAX9MpXv2-25" target="TWmwgMmYxf-jAX9MpXv2-31" edge="1">
          <mxGeometry width="50" height="50" relative="1" as="geometry">
            <mxPoint x="468.5" y="590" as="sourcePoint" />
            <mxPoint x="518.5" y="540" as="targetPoint" />
          </mxGeometry>
        </mxCell>
        <mxCell id="TWmwgMmYxf-jAX9MpXv2-38" value="" style="endArrow=none;html=1;rounded=0;" parent="1" source="TWmwgMmYxf-jAX9MpXv2-25" target="TWmwgMmYxf-jAX9MpXv2-32" edge="1">
          <mxGeometry width="50" height="50" relative="1" as="geometry">
            <mxPoint x="568.5" y="510" as="sourcePoint" />
            <mxPoint x="618.5" y="460" as="targetPoint" />
          </mxGeometry>
        </mxCell>
        <mxCell id="TWmwgMmYxf-jAX9MpXv2-39" value="" style="endArrow=none;html=1;rounded=0;" parent="1" source="TWmwgMmYxf-jAX9MpXv2-25" target="TWmwgMmYxf-jAX9MpXv2-34" edge="1">
          <mxGeometry width="50" height="50" relative="1" as="geometry">
            <mxPoint x="568.5" y="510" as="sourcePoint" />
            <mxPoint x="618.5" y="460" as="targetPoint" />
          </mxGeometry>
        </mxCell>
        <mxCell id="TWmwgMmYxf-jAX9MpXv2-40" value="" style="endArrow=none;html=1;rounded=0;" parent="1" source="TWmwgMmYxf-jAX9MpXv2-25" target="TWmwgMmYxf-jAX9MpXv2-33" edge="1">
          <mxGeometry width="50" height="50" relative="1" as="geometry">
            <mxPoint x="688.5" y="374.8000000000002" as="sourcePoint" />
            <mxPoint x="718.8380388663952" y="377.2270431093116" as="targetPoint" />
          </mxGeometry>
        </mxCell>
        <mxCell id="TWmwgMmYxf-jAX9MpXv2-43" value="Produce" style="rhombus;whiteSpace=wrap;html=1;fillColor=#dae8fc;strokeColor=#6c8ebf;" parent="1" vertex="1">
          <mxGeometry x="100" y="430" width="120" height="80" as="geometry" />
        </mxCell>
        <mxCell id="TWmwgMmYxf-jAX9MpXv2-44" value="" style="endArrow=classic;html=1;rounded=0;entryX=0.5;entryY=1;entryDx=0;entryDy=0;exitX=0.5;exitY=0;exitDx=0;exitDy=0;" parent="1" source="TWmwgMmYxf-jAX9MpXv2-43" target="TWmwgMmYxf-jAX9MpXv2-12" edge="1">
          <mxGeometry width="50" height="50" relative="1" as="geometry">
            <mxPoint x="320" y="310.0000000000001" as="sourcePoint" />
            <mxPoint x="230" y="310.0000000000001" as="targetPoint" />
          </mxGeometry>
        </mxCell>
        <mxCell id="TWmwgMmYxf-jAX9MpXv2-45" value="" style="endArrow=classic;html=1;rounded=0;entryX=0.5;entryY=1;entryDx=0;entryDy=0;exitX=0.5;exitY=0;exitDx=0;exitDy=0;" parent="1" source="TWmwgMmYxf-jAX9MpXv2-48" target="TWmwgMmYxf-jAX9MpXv2-43" edge="1">
          <mxGeometry width="50" height="50" relative="1" as="geometry">
            <mxPoint x="159.71" y="610" as="sourcePoint" />
            <mxPoint x="159.71" y="510" as="targetPoint" />
          </mxGeometry>
        </mxCell>
        <mxCell id="TWmwgMmYxf-jAX9MpXv2-48" value="Productor" style="rounded=0;whiteSpace=wrap;html=1;fillColor=#ffe6cc;strokeColor=#d79b00;" parent="1" vertex="1">
          <mxGeometry x="100" y="610" width="120" height="60" as="geometry" />
        </mxCell>
        <mxCell id="TWmwgMmYxf-jAX9MpXv2-50" value="ID" style="ellipse;whiteSpace=wrap;html=1;" parent="1" vertex="1">
          <mxGeometry x="10" y="600" width="70" height="40" as="geometry" />
        </mxCell>
        <mxCell id="TWmwgMmYxf-jAX9MpXv2-52" value="tlf" style="ellipse;whiteSpace=wrap;html=1;" parent="1" vertex="1">
          <mxGeometry x="10" y="680" width="70" height="40" as="geometry" />
        </mxCell>
        <mxCell id="TWmwgMmYxf-jAX9MpXv2-53" value="email" style="ellipse;whiteSpace=wrap;html=1;" parent="1" vertex="1">
          <mxGeometry x="90" y="710" width="70" height="40" as="geometry" />
        </mxCell>
        <mxCell id="TWmwgMmYxf-jAX9MpXv2-54" value="dirección" style="ellipse;whiteSpace=wrap;html=1;" parent="1" vertex="1">
          <mxGeometry x="180" y="700" width="70" height="40" as="geometry" />
        </mxCell>
        <mxCell id="TWmwgMmYxf-jAX9MpXv2-55" value="Nombre Empresa" style="ellipse;whiteSpace=wrap;html=1;" parent="1" vertex="1">
          <mxGeometry x="250" y="670" width="70" height="40" as="geometry" />
        </mxCell>
        <mxCell id="TWmwgMmYxf-jAX9MpXv2-56" value="" style="endArrow=none;html=1;rounded=0;" parent="1" source="TWmwgMmYxf-jAX9MpXv2-50" target="TWmwgMmYxf-jAX9MpXv2-48" edge="1">
          <mxGeometry width="50" height="50" relative="1" as="geometry">
            <mxPoint x="50" y="590" as="sourcePoint" />
            <mxPoint x="100" y="540" as="targetPoint" />
          </mxGeometry>
        </mxCell>
        <mxCell id="TWmwgMmYxf-jAX9MpXv2-57" value="" style="endArrow=none;html=1;rounded=0;" parent="1" source="TWmwgMmYxf-jAX9MpXv2-54" target="TWmwgMmYxf-jAX9MpXv2-48" edge="1">
          <mxGeometry width="50" height="50" relative="1" as="geometry">
            <mxPoint x="430" y="560" as="sourcePoint" />
            <mxPoint x="480" y="510" as="targetPoint" />
          </mxGeometry>
        </mxCell>
        <mxCell id="TWmwgMmYxf-jAX9MpXv2-58" value="" style="endArrow=none;html=1;rounded=0;" parent="1" source="TWmwgMmYxf-jAX9MpXv2-48" target="TWmwgMmYxf-jAX9MpXv2-53" edge="1">
          <mxGeometry width="50" height="50" relative="1" as="geometry">
            <mxPoint x="430" y="560" as="sourcePoint" />
            <mxPoint x="480" y="510" as="targetPoint" />
          </mxGeometry>
        </mxCell>
        <mxCell id="TWmwgMmYxf-jAX9MpXv2-59" value="" style="endArrow=none;html=1;rounded=0;" parent="1" source="TWmwgMmYxf-jAX9MpXv2-48" target="TWmwgMmYxf-jAX9MpXv2-52" edge="1">
          <mxGeometry width="50" height="50" relative="1" as="geometry">
            <mxPoint x="430" y="560" as="sourcePoint" />
            <mxPoint x="480" y="510" as="targetPoint" />
          </mxGeometry>
        </mxCell>
        <mxCell id="TWmwgMmYxf-jAX9MpXv2-60" value="" style="endArrow=none;html=1;rounded=0;" parent="1" source="TWmwgMmYxf-jAX9MpXv2-55" target="TWmwgMmYxf-jAX9MpXv2-48" edge="1">
          <mxGeometry width="50" height="50" relative="1" as="geometry">
            <mxPoint x="430" y="560" as="sourcePoint" />
            <mxPoint x="480" y="510" as="targetPoint" />
          </mxGeometry>
        </mxCell>
        <mxCell id="TWmwgMmYxf-jAX9MpXv2-63" value="(1,n)" style="text;html=1;align=center;verticalAlign=middle;resizable=0;points=[];autosize=1;strokeColor=none;fillColor=none;" parent="1" vertex="1">
          <mxGeometry x="160" y="410" width="40" height="20" as="geometry" />
        </mxCell>
        <mxCell id="TWmwgMmYxf-jAX9MpXv2-64" value="(1,n)" style="text;html=1;align=center;verticalAlign=middle;resizable=0;points=[];autosize=1;strokeColor=none;fillColor=none;" parent="1" vertex="1">
          <mxGeometry x="160" y="520" width="40" height="20" as="geometry" />
        </mxCell>
        <mxCell id="TWmwgMmYxf-jAX9MpXv2-67" value="Precio" style="ellipse;whiteSpace=wrap;html=1;" parent="1" vertex="1">
          <mxGeometry x="60" y="400" width="70" height="40" as="geometry" />
        </mxCell>
        <mxCell id="TWmwgMmYxf-jAX9MpXv2-72" value="" style="endArrow=none;html=1;rounded=0;" parent="1" source="TWmwgMmYxf-jAX9MpXv2-67" target="TWmwgMmYxf-jAX9MpXv2-12" edge="1">
          <mxGeometry width="50" height="50" relative="1" as="geometry">
            <mxPoint x="430" y="390" as="sourcePoint" />
            <mxPoint x="480" y="340" as="targetPoint" />
          </mxGeometry>
        </mxCell>
        <mxCell id="TWmwgMmYxf-jAX9MpXv2-76" value="Almacen" style="rounded=0;whiteSpace=wrap;html=1;fillColor=#ffe6cc;strokeColor=#d79b00;" parent="1" vertex="1">
          <mxGeometry x="100" y="20" width="120" height="60" as="geometry" />
        </mxCell>
        <mxCell id="TWmwgMmYxf-jAX9MpXv2-77" value="&lt;u&gt;ID&lt;/u&gt;" style="ellipse;whiteSpace=wrap;html=1;" parent="1" vertex="1">
          <mxGeometry x="100" y="-90" width="70" height="40" as="geometry" />
        </mxCell>
        <mxCell id="TWmwgMmYxf-jAX9MpXv2-78" value="Nave" style="ellipse;whiteSpace=wrap;html=1;" parent="1" vertex="1">
          <mxGeometry x="30" y="-40" width="70" height="40" as="geometry" />
        </mxCell>
        <mxCell id="TWmwgMmYxf-jAX9MpXv2-79" value="Pasillo" style="ellipse;whiteSpace=wrap;html=1;" parent="1" vertex="1">
          <mxGeometry x="265" width="70" height="40" as="geometry" />
        </mxCell>
        <mxCell id="TWmwgMmYxf-jAX9MpXv2-80" value="Estanteria" style="ellipse;whiteSpace=wrap;html=1;" parent="1" vertex="1">
          <mxGeometry x="265" y="60" width="70" height="40" as="geometry" />
        </mxCell>
        <mxCell id="TWmwgMmYxf-jAX9MpXv2-81" value="Altura" style="ellipse;whiteSpace=wrap;html=1;" parent="1" vertex="1">
          <mxGeometry x="180" y="-70" width="70" height="40" as="geometry" />
        </mxCell>
        <mxCell id="TWmwgMmYxf-jAX9MpXv2-82" value="Codigo lugar" style="ellipse;whiteSpace=wrap;html=1;" parent="1" vertex="1">
          <mxGeometry x="260" y="-60" width="70" height="40" as="geometry" />
        </mxCell>
        <mxCell id="TWmwgMmYxf-jAX9MpXv2-83" value="" style="endArrow=none;html=1;rounded=0;" parent="1" source="TWmwgMmYxf-jAX9MpXv2-76" target="TWmwgMmYxf-jAX9MpXv2-77" edge="1">
          <mxGeometry width="50" height="50" relative="1" as="geometry">
            <mxPoint x="430" y="60" as="sourcePoint" />
            <mxPoint x="480" y="10" as="targetPoint" />
          </mxGeometry>
        </mxCell>
        <mxCell id="TWmwgMmYxf-jAX9MpXv2-84" value="" style="endArrow=none;html=1;rounded=0;" parent="1" source="TWmwgMmYxf-jAX9MpXv2-76" target="TWmwgMmYxf-jAX9MpXv2-81" edge="1">
          <mxGeometry width="50" height="50" relative="1" as="geometry">
            <mxPoint x="430" y="60" as="sourcePoint" />
            <mxPoint x="480" y="10" as="targetPoint" />
          </mxGeometry>
        </mxCell>
        <mxCell id="TWmwgMmYxf-jAX9MpXv2-85" value="" style="endArrow=none;html=1;rounded=0;" parent="1" source="TWmwgMmYxf-jAX9MpXv2-76" target="TWmwgMmYxf-jAX9MpXv2-82" edge="1">
          <mxGeometry width="50" height="50" relative="1" as="geometry">
            <mxPoint x="430" y="60" as="sourcePoint" />
            <mxPoint x="480" y="10" as="targetPoint" />
          </mxGeometry>
        </mxCell>
        <mxCell id="TWmwgMmYxf-jAX9MpXv2-86" value="" style="endArrow=none;html=1;rounded=0;" parent="1" source="TWmwgMmYxf-jAX9MpXv2-76" target="TWmwgMmYxf-jAX9MpXv2-79" edge="1">
          <mxGeometry width="50" height="50" relative="1" as="geometry">
            <mxPoint x="430" y="60" as="sourcePoint" />
            <mxPoint x="480" y="10" as="targetPoint" />
          </mxGeometry>
        </mxCell>
        <mxCell id="TWmwgMmYxf-jAX9MpXv2-87" value="" style="endArrow=none;html=1;rounded=0;" parent="1" source="TWmwgMmYxf-jAX9MpXv2-76" target="TWmwgMmYxf-jAX9MpXv2-80" edge="1">
          <mxGeometry width="50" height="50" relative="1" as="geometry">
            <mxPoint x="430" y="60" as="sourcePoint" />
            <mxPoint x="480" y="10" as="targetPoint" />
          </mxGeometry>
        </mxCell>
        <mxCell id="TWmwgMmYxf-jAX9MpXv2-88" value="" style="endArrow=none;html=1;rounded=0;" parent="1" source="TWmwgMmYxf-jAX9MpXv2-76" target="TWmwgMmYxf-jAX9MpXv2-78" edge="1">
          <mxGeometry width="50" height="50" relative="1" as="geometry">
            <mxPoint x="430" y="60" as="sourcePoint" />
            <mxPoint x="480" y="10" as="targetPoint" />
          </mxGeometry>
        </mxCell>
        <mxCell id="TWmwgMmYxf-jAX9MpXv2-91" value="Localiza" style="rhombus;whiteSpace=wrap;html=1;fillColor=#dae8fc;strokeColor=#6c8ebf;" parent="1" vertex="1">
          <mxGeometry x="100" y="120" width="120" height="80" as="geometry" />
        </mxCell>
        <mxCell id="TWmwgMmYxf-jAX9MpXv2-92" value="" style="endArrow=classic;html=1;rounded=0;entryX=0.5;entryY=1;entryDx=0;entryDy=0;" parent="1" source="TWmwgMmYxf-jAX9MpXv2-12" target="TWmwgMmYxf-jAX9MpXv2-91" edge="1">
          <mxGeometry width="50" height="50" relative="1" as="geometry">
            <mxPoint x="430" y="220" as="sourcePoint" />
            <mxPoint x="480" y="170" as="targetPoint" />
          </mxGeometry>
        </mxCell>
        <mxCell id="TWmwgMmYxf-jAX9MpXv2-93" value="" style="endArrow=classic;html=1;rounded=0;" parent="1" source="TWmwgMmYxf-jAX9MpXv2-91" target="TWmwgMmYxf-jAX9MpXv2-76" edge="1">
          <mxGeometry width="50" height="50" relative="1" as="geometry">
            <mxPoint x="430" y="220" as="sourcePoint" />
            <mxPoint x="480" y="170" as="targetPoint" />
          </mxGeometry>
        </mxCell>
        <mxCell id="TWmwgMmYxf-jAX9MpXv2-94" value="(1,1)" style="text;html=1;align=center;verticalAlign=middle;resizable=0;points=[];autosize=1;strokeColor=none;fillColor=none;" parent="1" vertex="1">
          <mxGeometry x="160" y="200" width="40" height="20" as="geometry" />
        </mxCell>
        <mxCell id="TWmwgMmYxf-jAX9MpXv2-95" value="(0,n)" style="text;html=1;align=center;verticalAlign=middle;resizable=0;points=[];autosize=1;strokeColor=none;fillColor=none;" parent="1" vertex="1">
          <mxGeometry x="160" y="80" width="40" height="20" as="geometry" />
        </mxCell>
        <mxCell id="TWmwgMmYxf-jAX9MpXv2-96" value="Registra" style="rhombus;whiteSpace=wrap;html=1;fillColor=#dae8fc;strokeColor=#6c8ebf;" parent="1" vertex="1">
          <mxGeometry x="554.25" y="490" width="120" height="80" as="geometry" />
        </mxCell>
        <mxCell id="TWmwgMmYxf-jAX9MpXv2-97" value="LogIn" style="rounded=0;whiteSpace=wrap;html=1;fillColor=#ffe6cc;strokeColor=#d79b00;" parent="1" vertex="1">
          <mxGeometry x="554.25" y="670" width="120" height="60" as="geometry" />
        </mxCell>
        <mxCell id="TWmwgMmYxf-jAX9MpXv2-98" value="" style="endArrow=classic;html=1;rounded=0;entryX=0.5;entryY=0;entryDx=0;entryDy=0;" parent="1" source="TWmwgMmYxf-jAX9MpXv2-25" target="TWmwgMmYxf-jAX9MpXv2-96" edge="1">
          <mxGeometry width="50" height="50" relative="1" as="geometry">
            <mxPoint x="558.5" y="610" as="sourcePoint" />
            <mxPoint x="608.5" y="560" as="targetPoint" />
          </mxGeometry>
        </mxCell>
        <mxCell id="TWmwgMmYxf-jAX9MpXv2-100" value="" style="endArrow=classic;html=1;rounded=0;exitX=0.5;exitY=1;exitDx=0;exitDy=0;" parent="1" source="TWmwgMmYxf-jAX9MpXv2-96" target="TWmwgMmYxf-jAX9MpXv2-97" edge="1">
          <mxGeometry width="50" height="50" relative="1" as="geometry">
            <mxPoint x="558.5" y="610" as="sourcePoint" />
            <mxPoint x="608.5" y="560" as="targetPoint" />
          </mxGeometry>
        </mxCell>
        <mxCell id="TWmwgMmYxf-jAX9MpXv2-101" value="Usuario" style="ellipse;whiteSpace=wrap;html=1;" parent="1" vertex="1">
          <mxGeometry x="708.5" y="640" width="70" height="40" as="geometry" />
        </mxCell>
        <mxCell id="TWmwgMmYxf-jAX9MpXv2-102" value="Contraseña" style="ellipse;whiteSpace=wrap;html=1;" parent="1" vertex="1">
          <mxGeometry x="698.5" y="720" width="70" height="40" as="geometry" />
        </mxCell>
        <mxCell id="TWmwgMmYxf-jAX9MpXv2-103" value="" style="endArrow=none;html=1;rounded=0;" parent="1" source="TWmwgMmYxf-jAX9MpXv2-97" target="TWmwgMmYxf-jAX9MpXv2-101" edge="1">
          <mxGeometry width="50" height="50" relative="1" as="geometry">
            <mxPoint x="558.5" y="610" as="sourcePoint" />
            <mxPoint x="608.5" y="560" as="targetPoint" />
          </mxGeometry>
        </mxCell>
        <mxCell id="TWmwgMmYxf-jAX9MpXv2-104" value="" style="endArrow=none;html=1;rounded=0;" parent="1" source="TWmwgMmYxf-jAX9MpXv2-102" target="TWmwgMmYxf-jAX9MpXv2-97" edge="1">
          <mxGeometry width="50" height="50" relative="1" as="geometry">
            <mxPoint x="558.5" y="610" as="sourcePoint" />
            <mxPoint x="608.5" y="560" as="targetPoint" />
          </mxGeometry>
        </mxCell>
        <mxCell id="TWmwgMmYxf-jAX9MpXv2-105" value="(1,1)" style="text;html=1;align=center;verticalAlign=middle;resizable=0;points=[];autosize=1;strokeColor=none;fillColor=none;" parent="1" vertex="1">
          <mxGeometry x="618.5" y="470" width="40" height="20" as="geometry" />
        </mxCell>
        <mxCell id="TWmwgMmYxf-jAX9MpXv2-106" value="(1,1)" style="text;html=1;align=center;verticalAlign=middle;resizable=0;points=[];autosize=1;strokeColor=none;fillColor=none;" parent="1" vertex="1">
          <mxGeometry x="618.5" y="570" width="40" height="20" as="geometry" />
        </mxCell>
        <mxCell id="TWmwgMmYxf-jAX9MpXv2-107" value="DNI" style="ellipse;whiteSpace=wrap;html=1;" parent="1" vertex="1">
          <mxGeometry x="466" y="400" width="70" height="40" as="geometry" />
        </mxCell>
        <mxCell id="TWmwgMmYxf-jAX9MpXv2-108" value="" style="endArrow=none;html=1;rounded=0;" parent="1" source="TWmwgMmYxf-jAX9MpXv2-107" target="TWmwgMmYxf-jAX9MpXv2-25" edge="1">
          <mxGeometry width="50" height="50" relative="1" as="geometry">
            <mxPoint x="538.5" y="380" as="sourcePoint" />
            <mxPoint x="588.5" y="330" as="targetPoint" />
          </mxGeometry>
        </mxCell>
        <mxCell id="TWmwgMmYxf-jAX9MpXv2-109" value="Venta" style="rounded=0;whiteSpace=wrap;html=1;fillColor=#ffe6cc;strokeColor=#d79b00;" parent="1" vertex="1">
          <mxGeometry x="554.25" y="30" width="120" height="60" as="geometry" />
        </mxCell>
        <mxCell id="TWmwgMmYxf-jAX9MpXv2-110" value="" style="endArrow=classic;html=1;rounded=0;entryX=1;entryY=0;entryDx=0;entryDy=0;exitX=0;exitY=0.5;exitDx=0;exitDy=0;" parent="1" source="TWmwgMmYxf-jAX9MpXv2-109" target="TWmwgMmYxf-jAX9MpXv2-21" edge="1">
          <mxGeometry width="50" height="50" relative="1" as="geometry">
            <mxPoint x="504.25" y="270" as="sourcePoint" />
            <mxPoint x="434.25" y="20" as="targetPoint" />
          </mxGeometry>
        </mxCell>
        <mxCell id="TWmwgMmYxf-jAX9MpXv2-112" style="edgeStyle=orthogonalEdgeStyle;rounded=0;orthogonalLoop=1;jettySize=auto;html=1;" parent="1" source="TWmwgMmYxf-jAX9MpXv2-111" target="TWmwgMmYxf-jAX9MpXv2-109" edge="1">
          <mxGeometry relative="1" as="geometry" />
        </mxCell>
        <mxCell id="TWmwgMmYxf-jAX9MpXv2-111" value="Compra" style="rhombus;whiteSpace=wrap;html=1;fillColor=#dae8fc;strokeColor=#6c8ebf;" parent="1" vertex="1">
          <mxGeometry x="554.25" y="160" width="120" height="80" as="geometry" />
        </mxCell>
        <mxCell id="TWmwgMmYxf-jAX9MpXv2-115" value="(1,1)" style="text;html=1;align=center;verticalAlign=middle;resizable=0;points=[];autosize=1;strokeColor=none;fillColor=none;" parent="1" vertex="1">
          <mxGeometry x="614.25" y="240" width="40" height="20" as="geometry" />
        </mxCell>
        <mxCell id="TWmwgMmYxf-jAX9MpXv2-116" value="(0,n)" style="text;html=1;align=center;verticalAlign=middle;resizable=0;points=[];autosize=1;strokeColor=none;fillColor=none;" parent="1" vertex="1">
          <mxGeometry x="614.25" y="140" width="40" height="20" as="geometry" />
        </mxCell>
        <mxCell id="TWmwgMmYxf-jAX9MpXv2-117" value="(1,n)" style="text;html=1;align=center;verticalAlign=middle;resizable=0;points=[];autosize=1;strokeColor=none;fillColor=none;" parent="1" vertex="1">
          <mxGeometry x="396" y="140" width="40" height="20" as="geometry" />
        </mxCell>
        <mxCell id="TWmwgMmYxf-jAX9MpXv2-118" value="(0,n)" style="text;html=1;align=center;verticalAlign=middle;resizable=0;points=[];autosize=1;strokeColor=none;fillColor=none;" parent="1" vertex="1">
          <mxGeometry x="290" y="200" width="40" height="20" as="geometry" />
        </mxCell>
        <mxCell id="TWmwgMmYxf-jAX9MpXv2-119" value="Precio/uds" style="ellipse;whiteSpace=wrap;html=1;" parent="1" vertex="1">
          <mxGeometry x="326" y="270" width="70" height="40" as="geometry" />
        </mxCell>
        <mxCell id="TWmwgMmYxf-jAX9MpXv2-120" value="Cantidad" style="ellipse;whiteSpace=wrap;html=1;" parent="1" vertex="1">
          <mxGeometry x="360" y="70" width="70" height="40" as="geometry" />
        </mxCell>
        <mxCell id="TWmwgMmYxf-jAX9MpXv2-121" value="" style="endArrow=none;html=1;rounded=0;" parent="1" source="TWmwgMmYxf-jAX9MpXv2-21" target="TWmwgMmYxf-jAX9MpXv2-119" edge="1">
          <mxGeometry width="50" height="50" relative="1" as="geometry">
            <mxPoint x="540" y="470" as="sourcePoint" />
            <mxPoint x="590" y="420" as="targetPoint" />
          </mxGeometry>
        </mxCell>
        <mxCell id="TWmwgMmYxf-jAX9MpXv2-122" value="" style="endArrow=none;html=1;rounded=0;" parent="1" source="TWmwgMmYxf-jAX9MpXv2-21" target="TWmwgMmYxf-jAX9MpXv2-120" edge="1">
          <mxGeometry width="50" height="50" relative="1" as="geometry">
            <mxPoint x="540" y="470" as="sourcePoint" />
            <mxPoint x="590" y="420" as="targetPoint" />
          </mxGeometry>
        </mxCell>
        <mxCell id="TWmwgMmYxf-jAX9MpXv2-123" value="&lt;u&gt;Codigo&lt;/u&gt;" style="ellipse;whiteSpace=wrap;html=1;" parent="1" vertex="1">
          <mxGeometry x="520" y="-50" width="70" height="40" as="geometry" />
        </mxCell>
        <mxCell id="TWmwgMmYxf-jAX9MpXv2-125" value="Feha" style="ellipse;whiteSpace=wrap;html=1;" parent="1" vertex="1">
          <mxGeometry x="604.25" y="-50" width="70" height="40" as="geometry" />
        </mxCell>
        <mxCell id="TWmwgMmYxf-jAX9MpXv2-126" value="Cliente" style="ellipse;whiteSpace=wrap;html=1;" parent="1" vertex="1">
          <mxGeometry x="688.5" y="-20" width="70" height="40" as="geometry" />
        </mxCell>
        <mxCell id="TWmwgMmYxf-jAX9MpXv2-127" value="" style="endArrow=none;html=1;rounded=0;" parent="1" source="TWmwgMmYxf-jAX9MpXv2-109" target="TWmwgMmYxf-jAX9MpXv2-123" edge="1">
          <mxGeometry width="50" height="50" relative="1" as="geometry">
            <mxPoint x="540" y="470" as="sourcePoint" />
            <mxPoint x="590" y="420" as="targetPoint" />
          </mxGeometry>
        </mxCell>
        <mxCell id="TWmwgMmYxf-jAX9MpXv2-128" value="" style="endArrow=none;html=1;rounded=0;" parent="1" source="TWmwgMmYxf-jAX9MpXv2-109" target="TWmwgMmYxf-jAX9MpXv2-126" edge="1">
          <mxGeometry width="50" height="50" relative="1" as="geometry">
            <mxPoint x="540" y="470" as="sourcePoint" />
            <mxPoint x="590" y="420" as="targetPoint" />
          </mxGeometry>
        </mxCell>
        <mxCell id="TWmwgMmYxf-jAX9MpXv2-129" value="" style="endArrow=none;html=1;rounded=0;exitX=0.5;exitY=0;exitDx=0;exitDy=0;" parent="1" source="TWmwgMmYxf-jAX9MpXv2-109" target="TWmwgMmYxf-jAX9MpXv2-125" edge="1">
          <mxGeometry width="50" height="50" relative="1" as="geometry">
            <mxPoint x="620" y="60" as="sourcePoint" />
            <mxPoint x="639" y="-30" as="targetPoint" />
          </mxGeometry>
        </mxCell>
      </root>
    </mxGraphModel>
  </diagram>
</mxfile>
